<?xml version="1.0" standalone="no"?>
<!DOCTYPE svg PUBLIC "-//W3C//DTD SVG 20010904//EN"
 "http://www.w3.org/TR/2001/REC-SVG-20010904/DTD/svg10.dtd">
<svg version="1.0" xmlns="http://www.w3.org/2000/svg"
 width="545.000000pt" height="545.000000pt" viewBox="0 0 545.000000 545.000000"
 preserveAspectRatio="xMidYMid meet">
<metadata>
Created by potrace 1.11, written by Peter Selinger 2001-2013
</metadata>
<g transform="translate(0.000000,545.000000) scale(0.100000,-0.100000)"
fill="#000000" stroke="none">
<path d="M3884 5355 c-22 -12 -79 -45 -128 -73 -49 -29 -91 -52 -93 -52 -2 0
-22 -11 -44 -26 -39 -24 -67 -40 -159 -92 -25 -14 -62 -36 -82 -49 -21 -12
-39 -23 -41 -23 -2 0 -44 -23 -93 -52 -49 -28 -210 -121 -359 -206 -148 -85
-287 -166 -307 -178 -21 -13 -40 -24 -42 -24 -3 0 -31 -15 -63 -34 l-58 -34 0
-1501 0 -1501 -30 -1 c-16 0 -558 0 -1203 -1 -645 0 -1172 -2 -1170 -4 4 -4
460 -234 1228 -620 294 -148 538 -273 541 -277 3 -5 10 -9 15 -9 5 0 113 -53
239 -117 127 -64 237 -117 245 -120 8 -2 17 -6 20 -10 8 -10 143 -76 145 -71
1 3 8 0 16 -7 8 -7 95 -53 193 -103 l177 -90 77 41 c79 43 107 58 252 139 47
26 121 66 165 90 44 24 97 54 117 67 21 12 40 23 43 23 5 0 157 83 325 177 19
11 71 39 115 63 44 23 103 55 130 70 28 15 82 44 120 65 87 46 86 46 88 86 l2
34 73 2 c69 3 79 6 180 62 141 79 141 79 144 126 l3 40 77 1 c74 2 80 4 192
65 l116 64 0 41 0 40 76 2 c83 2 83 2 222 82 l92 53 0 1510 c0 1360 -2 1509
-16 1503 -8 -3 -12 -2 -9 4 3 5 -23 24 -57 43 -70 39 -124 69 -243 135 -95 53
-98 55 -420 235 -137 76 -279 155 -315 175 -36 19 -82 46 -102 59 -21 12 -42
23 -48 23 -5 0 -10 5 -10 10 0 6 -5 10 -12 10 -6 0 -47 21 -92 47 -45 26 -106
61 -137 79 l-57 32 -38 -23z"/>
</g>
</svg>
