<?xml version="1.0" encoding="utf-8"?>
<!-- Generator: Adobe Illustrator 16.0.0, SVG Export Plug-In . SVG Version: 6.00 Build 0)  -->
<!DOCTYPE svg PUBLIC "-//W3C//DTD SVG 1.1//EN" "http://www.w3.org/Graphics/SVG/1.1/DTD/svg11.dtd">
<svg version="1.1" id="Capa_2" xmlns="http://www.w3.org/2000/svg" xmlns:xlink="http://www.w3.org/1999/xlink" x="0px" y="0px"
	 width="1893.999px" height="530.123px" viewBox="0 0 1893.999 530.123" enable-background="new 0 0 1893.999 530.123"
	 xml:space="preserve">
<polygon fill="#CCD3D7" points="393.215,0.009 242.793,86.26 242,86.26 242,387.26 0,387.26 283.852,530.123 393,470.285 393,86.42 
	393,86.42 "/>
<polygon fill="#929CA2" points="245,86.26 245,108.719 245,389.053 266,400.408 266,389.053 266,108.26 280,108.26 280,389.053 
	280,408.167 280,408.269 305,421.372 305,408.167 305,389.053 305,108.26 320,108.26 320,389.053 320,428.873 320,430.106 
	346,444.082 346,428.873 346,389.053 346,108.26 360,108.26 360,389.053 360,451.172 360,451.943 393,470.285 393,451.172 
	393,389.053 393,108.719 393,86.26 "/>
<polygon fill="#1C3680" points="541,86.26 541,108.719 541,389.053 521,400.408 521,389.053 521,108.26 506,108.26 506,389.053 
	506,408.167 506,408.269 483,421.372 483,408.167 483,389.053 483,108.26 467,108.26 467,389.053 467,428.873 467,430.106 
	442,444.082 442,428.873 442,389.053 442,108.26 427,108.26 427,389.053 427,451.172 427,451.943 393,470.285 393,451.172 
	393,389.053 393,108.719 393,86.26 "/>
<path fill="#1C3680" d="M393,86.42c0,0,0.215-87.458,0.215-86.411c0,1.025,151.523,85.037,151.523,85.037"/>
<line fill="#004E93" stroke="#004E93" stroke-width="2" stroke-miterlimit="10" x1="393" y1="86.26" x2="545" y2="86.26"/>
<rect x="427" y="108.26" fill="#004E93" width="15" height="336"/>
<rect x="467" y="108.26" fill="#004E93" width="16" height="313"/>
<rect x="506" y="108.26" fill="#004E93" width="15" height="292"/>
<g>
	<polygon fill="#004E93" points="545,86.26 541,86.26 541,389.053 545,386.776 	"/>
	<polygon fill="#004E93" points="541,389.053 541,389.26 541.048,389.26 	"/>
</g>
<g>
	<path d="M792.342,312.906c10.172,0,16.291-0.345,18.446-0.345c14.395,0,21.636,4.827,21.636,15.084
		c0,9.137-5.603,14.136-16.895,15.17c12.843,0.776,19.48,6.206,19.48,15.171c0,12.067-7.931,16.463-24.049,16.463
		c-5.517,0-11.465-0.345-17.757-0.345c-4.31,0-8.62,0.172-13.016,0.345v-4.051c6.378,0,7.326-1.034,7.326-7.499v-38.789
		c0-6.379-0.861-7.413-7.326-7.499v-4.051C784.153,312.819,788.205,312.906,792.342,312.906z M801.565,340.833h5.085
		c7.931,0,11.378-3.103,11.378-12.154c0-9.568-3.792-11.809-12.153-11.809h-4.31V340.833z M801.565,370.14h5.258
		c9.654,0,13.016-3.017,13.016-13.274c0-8.965-3.965-11.896-12.671-11.896h-5.603V370.14z"/>
	<path d="M856.381,313.078c3.793,0,8.706-0.172,14.739-0.517v4.051c-6.637,0-7.413,1.034-7.413,7.499V362.9
		c0,6.465,0.776,7.499,7.413,7.499v4.051c-6.206-0.345-11.033-0.517-14.395-0.517c-3.275,0-8.188,0.172-14.739,0.517v-4.051
		c6.551,0,7.412-1.034,7.412-7.499v-38.789c0-6.465-0.775-7.499-7.412-7.499v-4.051
		C847.761,312.906,852.588,313.078,856.381,313.078z"/>
	<path d="M929.731,329.111h-3.706c-0.948-10.085-4.224-12.326-14.137-12.326h-12.93v22.842h5.345c6.81,0,8.017-0.603,8.62-9.481
		h3.706c-0.173,4.827-0.345,8.878-0.345,12.067c0,3.362,0.172,7.585,0.345,12.671h-3.706c-0.346-8.706-2.069-11.119-8.62-11.119
		h-5.345v26.548h15.603c10.602,0,13.877-2.758,14.998-14.481h3.706c-0.431,6.207-0.775,12.413-1.034,18.619h-54.907v-4.051
		c6.378,0,7.326-1.034,7.326-7.499v-38.789c0-6.379-0.861-7.413-7.326-7.499v-4.051h11.723c12.844,0,26.117-0.086,39.736-0.345
		C928.956,317.474,929.215,323.077,929.731,329.111z"/>
	<path d="M949.294,312.992c2.931,0,6.724-0.172,11.119-0.431l32.151,43.357v-30.772c0-6.896-0.775-8.533-7.326-8.533h-0.518v-4.051
		c4.138,0.258,7.499,0.431,10.085,0.431c2.069,0,5.259-0.172,9.396-0.431v4.051c-6.723,0-7.326,1.551-7.326,8.447v25.169
		c0,5.861-0.087,14.222-0.345,24.911l-7.499-0.689l-38.271-51.632v39.133c0,7.154,0.603,8.447,7.758,8.447v4.051
		c-4.569-0.259-7.931-0.431-10.086-0.431c-1.81,0-4.999,0.172-9.567,0.431v-4.051c6.896,0,7.585-1.379,7.585-8.447v-37.84
		c0-6.551-0.861-7.499-7.758-7.499v-4.051C942.915,312.819,946.449,312.992,949.294,312.992z"/>
	<path d="M1062.206,329.111h-3.706c-0.948-10.085-4.224-12.326-14.137-12.326h-12.93v22.842h5.345c6.81,0,8.017-0.603,8.62-9.481
		h3.706c-0.173,4.827-0.345,8.878-0.345,12.067c0,3.362,0.172,7.585,0.345,12.671h-3.706c-0.346-8.706-2.069-11.119-8.62-11.119
		h-5.345v26.548h15.603c10.602,0,13.877-2.758,14.998-14.481h3.706c-0.431,6.207-0.775,12.413-1.034,18.619h-54.907v-4.051
		c6.378,0,7.326-1.034,7.326-7.499v-38.789c0-6.379-0.861-7.413-7.326-7.499v-4.051h11.723c12.844,0,26.117-0.086,39.736-0.345
		C1061.431,317.474,1061.689,323.077,1062.206,329.111z"/>
	<path d="M1114.438,313.336h3.275c-0.173,3.879-0.173,6.637-0.173,8.534c0,2.931,0.087,6.206,0.173,9.999h-3.534
		c-0.948-10.085-6.724-15.774-15.257-15.774c-6.551,0-10.603,4.051-10.603,9.654c0,6.551,4.396,8.275,12.24,11.206
		c12.93,4.741,19.998,8.275,19.998,19.825c0,10.861-8.447,18.446-22.929,18.446c-7.327,0-13.274-2.155-18.532-6.81l-1.034,4.741
		h-3.189c0.086-4.827,0.172-8.534,0.172-11.119c0-1.552-0.086-4.914-0.172-9.913h3.706c0.776,11.981,7.844,18.963,17.843,18.963
		c6.551,0,10.258-3.707,10.258-9.481c0-5.948-3.361-8.189-10.517-10.861c-4.999-1.896-10.171-3.362-14.566-6.551
		c-4.827-3.534-7.068-7.844-7.068-13.878c0-11.292,8.274-18.532,22.583-18.532c6.379,0,11.981,1.81,16.637,5.258L1114.438,313.336z"
		/>
	<path d="M1169.769,313.078c3.793,0,8.706-0.172,14.739-0.517v4.051c-6.637,0-7.412,1.034-7.412,7.499V362.9
		c0,6.465,0.775,7.499,7.412,7.499v4.051c-6.206-0.345-11.033-0.517-14.395-0.517c-3.275,0-8.188,0.172-14.739,0.517v-4.051
		c6.551,0,7.412-1.034,7.412-7.499v-38.789c0-6.465-0.775-7.499-7.412-7.499v-4.051
		C1161.148,312.906,1165.976,313.078,1169.769,313.078z"/>
	<path d="M1200.538,312.992c2.931,0,6.724-0.172,11.119-0.431l32.151,43.357v-30.772c0-6.896-0.775-8.533-7.326-8.533h-0.518v-4.051
		c4.138,0.258,7.499,0.431,10.085,0.431c2.069,0,5.259-0.172,9.396-0.431v4.051c-6.723,0-7.326,1.551-7.326,8.447v25.169
		c0,5.861-0.087,14.222-0.345,24.911l-7.499-0.689l-38.271-51.632v39.133c0,7.154,0.603,8.447,7.758,8.447v4.051
		c-4.569-0.259-7.931-0.431-10.086-0.431c-1.81,0-4.999,0.172-9.567,0.431v-4.051c6.896,0,7.585-1.379,7.585-8.447v-37.84
		c0-6.551-0.861-7.499-7.758-7.499v-4.051C1194.159,312.819,1197.693,312.992,1200.538,312.992z"/>
	<path d="M1272.076,312.992c2.758,0,6.724-0.172,12.067-0.431l16.032,45.426l16.033-45.426c4.482,0.258,8.188,0.431,11.119,0.431
		s6.724-0.172,11.464-0.431v4.051c-6.551,0.086-7.154,1.12-7.154,7.327V362.9c0,6.378,0.69,7.499,7.154,7.499v4.051
		c-6.378-0.345-11.119-0.517-14.222-0.517c-3.534,0-8.189,0.172-14.051,0.517v-4.051c6.379,0,7.241-1.034,7.241-7.499l0.086-42.237
		h-0.431l-19.136,53.874l-6.552-0.518l-18.704-53.356h-0.432l-0.517,40.944v1.121c0,5.947,0.775,7.671,7.068,7.671v4.051
		c-4.482-0.259-7.5-0.345-9.051-0.345c-2.673,0-6.12,0.172-10.258,0.345v-4.051c7.413-0.172,7.844-1.465,7.931-8.275l0.603-40.943
		v-0.345c0-3.879-1.379-4.224-7.326-4.224v-4.051C1265.353,312.819,1269.06,312.992,1272.076,312.992z"/>
	<path d="M1359.387,313.078c3.707,0,8.534-0.172,14.567-0.517v4.051c-6.465,0-7.24,1.12-7.24,7.499v27.755
		c0,11.292,2.845,17.067,15.171,17.067c12.067,0,15.516-6.034,15.516-18.446v-25.687c0-6.637-0.087-8.188-7.241-8.188v-4.051
		c4.138,0.258,7.241,0.431,9.224,0.431s4.827-0.172,8.619-0.431v4.051c-5.603,0.086-5.861,1.465-5.861,7.068v21.463
		c0,8.103-0.172,13.964-2.154,18.36c-3.534,7.844-11.12,11.723-22.67,11.723c-9.568,0-16.637-2.758-20.773-7.671
		c-3.621-4.396-4.224-9.741-4.224-17.412v-26.031c0-6.379-0.776-7.413-7.241-7.499v-4.051
		C1350.854,312.906,1355.595,313.078,1359.387,313.078z"/>
	<path d="M1467.817,329.111h-3.706c-0.948-10.085-4.224-12.326-14.137-12.326h-12.93v22.842h5.345c6.81,0,8.017-0.603,8.62-9.481
		h3.706c-0.173,4.827-0.345,8.878-0.345,12.067c0,3.362,0.172,7.585,0.345,12.671h-3.706c-0.346-8.706-2.069-11.119-8.62-11.119
		h-5.345v26.548h15.603c10.602,0,13.877-2.758,14.998-14.481h3.706c-0.431,6.207-0.775,12.413-1.034,18.619h-54.907v-4.051
		c6.378,0,7.326-1.034,7.326-7.499v-38.789c0-6.379-0.861-7.413-7.326-7.499v-4.051h11.723c12.844,0,26.117-0.086,39.736-0.345
		C1467.042,317.474,1467.301,323.077,1467.817,329.111z"/>
	<path d="M1489.707,312.906c10.172,0,16.291-0.345,18.446-0.345c14.395,0,21.636,4.827,21.636,15.084
		c0,9.137-5.603,14.136-16.895,15.17c12.843,0.776,19.48,6.206,19.48,15.171c0,12.067-7.931,16.463-24.049,16.463
		c-5.517,0-11.465-0.345-17.757-0.345c-4.31,0-8.62,0.172-13.016,0.345v-4.051c6.378,0,7.326-1.034,7.326-7.499v-38.789
		c0-6.379-0.861-7.413-7.326-7.499v-4.051C1481.519,312.819,1485.57,312.906,1489.707,312.906z M1498.931,340.833h5.085
		c7.931,0,11.378-3.103,11.378-12.154c0-9.568-3.792-11.809-12.153-11.809h-4.31V340.833z M1498.931,370.14h5.258
		c9.654,0,13.016-3.017,13.016-13.274c0-8.965-3.965-11.896-12.671-11.896h-5.603V370.14z"/>
	<path d="M1554.177,313.164c3.534,0,8.62-0.258,15.171-0.603v4.051h-0.775c-6.638,0-7.5,1.207-7.5,7.499v45.512h12.326
		c11.12,0,14.223-4.051,15.344-16.291h3.792c-0.431,7.154-1.034,14.309-1.982,21.463c-13.619-0.345-22.411-0.517-26.462-0.517
		c-8.188,0-16.464,0-24.652,0.172v-4.051c6.378,0,7.326-1.034,7.326-7.499v-38.789c0-6.379-0.861-7.413-7.326-7.499v-4.051
		C1546.161,312.906,1551.074,313.164,1554.177,313.164z"/>
	<path d="M1649.074,329.111h-3.706c-0.948-10.085-4.224-12.326-14.137-12.326h-12.929v22.842h5.344c6.81,0,8.017-0.603,8.62-9.481
		h3.706c-0.173,4.827-0.345,8.878-0.345,12.067c0,3.362,0.172,7.585,0.345,12.671h-3.706c-0.346-8.706-2.069-11.119-8.62-11.119
		h-5.344v26.548h15.602c10.602,0,13.877-2.758,14.998-14.481h3.706c-0.431,6.207-0.775,12.413-1.034,18.619h-54.907v-4.051
		c6.378,0,7.326-1.034,7.326-7.499v-38.789c0-6.379-0.861-7.413-7.326-7.499v-4.051h11.723c12.844,0,26.117-0.086,39.736-0.345
		C1648.299,317.474,1648.558,323.077,1649.074,329.111z"/>
	<path d="M1701.306,313.336h3.275c-0.173,3.879-0.173,6.637-0.173,8.534c0,2.931,0.087,6.206,0.173,9.999h-3.534
		c-0.948-10.085-6.724-15.774-15.257-15.774c-6.551,0-10.603,4.051-10.603,9.654c0,6.551,4.396,8.275,12.24,11.206
		c12.93,4.741,19.998,8.275,19.998,19.825c0,10.861-8.447,18.446-22.929,18.446c-7.327,0-13.274-2.155-18.532-6.81l-1.034,4.741
		h-3.189c0.086-4.827,0.172-8.534,0.172-11.119c0-1.552-0.086-4.914-0.172-9.913h3.706c0.776,11.981,7.844,18.963,17.843,18.963
		c6.551,0,10.258-3.707,10.258-9.481c0-5.948-3.361-8.189-10.517-10.861c-4.999-1.896-10.171-3.362-14.566-6.551
		c-4.827-3.534-7.068-7.844-7.068-13.878c0-11.292,8.274-18.532,22.583-18.532c6.379,0,11.981,1.81,16.637,5.258L1701.306,313.336z"
		/>
</g>
<g>
	<path d="M686.641,168.924h5.495c-0.289,6.507-0.289,11.135-0.289,14.316c0,4.917,0.145,10.412,0.289,16.774h-5.929
		c-1.591-16.919-11.279-26.463-25.596-26.463c-10.99,0-17.786,6.797-17.786,16.196c0,10.99,7.375,13.882,20.534,18.799
		c21.691,7.954,33.549,13.882,33.549,33.26c0,18.221-14.172,30.946-38.466,30.946c-12.291,0-22.27-3.615-31.091-11.424l-1.735,7.954
		h-5.35c0.145-8.098,0.289-14.316,0.289-18.655c0-2.603-0.145-8.242-0.289-16.629h6.218c1.302,20.1,13.159,31.813,29.934,31.813
		c10.99,0,17.208-6.218,17.208-15.907c0-9.978-5.64-13.738-17.642-18.221c-8.388-3.181-17.063-5.64-24.438-10.99
		c-8.099-5.929-11.858-13.159-11.858-23.282c0-18.943,13.883-31.091,37.888-31.091c10.7,0,20.101,3.037,27.909,8.821
		L686.641,168.924z"/>
	<path d="M804.497,179.77c10.846,9.688,16.63,23.137,16.63,39.767c0,16.485-6.218,30.368-17.353,40.056
		c-9.978,8.532-22.559,13.159-36.151,13.159c-14.027,0-26.464-4.627-36.297-13.304c-10.99-9.688-16.774-23.282-16.774-39.912
		c0-16.485,6.073-30.368,17.208-39.912c10.123-8.821,22.559-13.304,36.297-13.304C782.228,166.321,794.375,170.804,804.497,179.77z
		 M740.581,219.537c0,29.789,10.412,46.274,27.62,46.274c16.485,0,26.896-16.485,26.896-46.274s-10.411-46.13-27.475-46.13
		C751.138,173.407,740.581,189.748,740.581,219.537z"/>
	<path d="M858.006,168.635c5.929,0,14.461-0.434,25.451-1.012v6.796h-1.302c-11.135,0-12.581,2.024-12.581,12.581v76.353h20.68
		c18.654,0,23.86-6.796,25.74-27.331h6.362c-0.723,12.002-1.735,24.005-3.326,36.007c-22.848-0.579-37.598-0.868-44.395-0.868
		c-13.737,0-27.62,0-41.357,0.289v-6.796c10.701,0,12.292-1.735,12.292-12.581V187c0-10.701-1.446-12.437-12.292-12.581v-6.796
		C844.558,168.201,852.8,168.635,858.006,168.635z"/>
	<path d="M1018.521,195.387h-6.218c-1.591-16.919-7.086-20.679-23.716-20.679h-21.69v38.321h8.965
		c11.425,0,13.449-1.012,14.461-15.907h6.219c-0.29,8.098-0.579,14.895-0.579,20.245c0,5.64,0.289,12.725,0.579,21.257h-6.219
		c-0.578-14.605-3.471-18.655-14.461-18.655h-8.965v44.54h26.174c17.786,0,23.281-4.628,25.161-24.294h6.219
		c-0.724,10.412-1.302,20.824-1.735,31.235H930.6v-6.796c10.701,0,12.292-1.735,12.292-12.581V187
		c0-10.701-1.446-12.437-12.292-12.581v-6.796h19.667c21.546,0,43.815-0.145,66.664-0.579
		C1017.22,175.865,1017.653,185.265,1018.521,195.387z"/>
	<path d="M1057.134,168.201c10.701,0,20.679-0.578,30.078-0.578c24.729,0,37.31,9.11,37.31,25.74
		c0,16.34-10.412,24.438-31.959,25.885c18.944,1.446,26.753,7.23,29.066,21.691c1.735,10.701-0.723,19.956,6.652,19.956
		c4.049,0,5.64-2.893,6.796-8.821l5.206,0.723c-1.735,13.448-8.966,19.956-22.125,19.956c-13.882,0-18.943-7.52-18.943-22.848
		v-7.375c0-14.75-2.893-19.522-20.823-19.522h-5.929v29.066c0,10.701,1.301,12.581,12.146,12.581v6.796
		c-10.267-0.579-18.221-0.868-23.86-0.868c-5.351,0-13.593,0.289-24.583,0.868v-6.796c10.701,0,12.292-1.735,12.292-12.581V187
		c0-10.701-1.446-12.437-12.292-12.581v-6.796C1043.396,168.056,1050.338,168.201,1057.134,168.201z M1076.945,215.921
		c16.485,0,22.992-5.64,22.992-21.546c0-13.738-6.218-19.812-20.245-19.812c-1.735,0-4.193,0.29-7.229,0.434v40.779
		C1074.053,215.921,1075.499,215.921,1076.945,215.921z"/>
	<path d="M1207.672,168.49c6.073,0,14.027-0.29,23.86-0.868v6.796c-7.086,0.289-9.833,1.302-9.833,5.495
		c0,1.302,0.578,3.182,1.445,5.64l22.27,62.615l21.113-62.326c0.867-2.747,1.302-5.061,1.302-6.507c0-3.47-3.615-4.917-10.846-4.917
		v-6.796c6.507,0.434,11.279,0.723,14.75,0.723c3.036,0,7.953-0.29,14.46-0.723v6.796c-6.218,0.579-8.387,1.446-10.267,6.652
		l-22.559,64.784c-1.591,4.483-5.062,13.449-10.557,26.897l-12.726-1.012l-33.404-88.5c-2.458-6.363-3.615-8.821-10.846-8.821
		h-0.578v-6.796C1195.091,168.201,1202.61,168.49,1207.672,168.49z"/>
	<path d="M1315.408,168.49c6.362,0,14.605-0.29,24.728-0.868v6.796c-11.135,0-12.437,1.735-12.437,12.581v65.073
		c0,10.846,1.302,12.581,12.437,12.581v6.796c-10.411-0.579-18.51-0.868-24.149-0.868c-5.495,0-13.737,0.289-24.728,0.868v-6.796
		c10.99,0,12.437-1.735,12.437-12.581V187c0-10.846-1.302-12.581-12.437-12.581v-6.796
		C1300.947,168.201,1309.045,168.49,1315.408,168.49z"/>
	<path d="M1423.143,168.924h5.495c-0.289,6.507-0.289,11.135-0.289,14.316c0,4.917,0.145,10.412,0.289,16.774h-5.929
		c-1.591-16.919-11.279-26.463-25.596-26.463c-10.99,0-17.786,6.797-17.786,16.196c0,10.99,7.375,13.882,20.534,18.799
		c21.691,7.954,33.549,13.882,33.549,33.26c0,18.221-14.172,30.946-38.466,30.946c-12.291,0-22.27-3.615-31.091-11.424l-1.735,7.954
		h-5.35c0.145-8.098,0.289-14.316,0.289-18.655c0-2.603-0.145-8.242-0.289-16.629h6.218c1.302,20.1,13.159,31.813,29.934,31.813
		c10.99,0,17.208-6.218,17.208-15.907c0-9.978-5.64-13.738-17.642-18.221c-8.388-3.181-17.063-5.64-24.438-10.99
		c-8.099-5.929-11.858-13.159-11.858-23.282c0-18.943,13.883-31.091,37.888-31.091c10.7,0,20.101,3.037,27.909,8.821
		L1423.143,168.924z"/>
	<path d="M1466.816,168.346c4.627,0,11.279-0.29,20.245-0.723l26.896,76.208l26.897-76.208c7.52,0.434,13.737,0.723,18.654,0.723
		s11.279-0.29,19.232-0.723v6.796c-10.99,0.145-12.002,1.88-12.002,12.292v65.363c0,10.701,1.156,12.581,12.002,12.581v6.796
		c-10.7-0.579-18.654-0.868-23.86-0.868c-5.929,0-13.737,0.289-23.57,0.868v-6.796c10.701,0,12.146-1.735,12.146-12.581
		l0.145-70.857h-0.723l-32.103,90.379l-10.99-0.868l-31.38-89.512h-0.724l-0.867,68.688v1.88c0,9.978,1.302,12.87,11.857,12.87
		v6.796c-7.52-0.434-12.58-0.579-15.184-0.579c-4.482,0-10.267,0.29-17.208,0.579v-6.796c12.437-0.29,13.159-2.458,13.304-13.882
		l1.013-68.689v-0.578c0-6.507-2.314-7.086-12.292-7.086v-6.796C1455.537,168.056,1461.755,168.346,1466.816,168.346z"/>
	<path d="M1640.493,166.321l33.404,90.958c2.169,5.784,4.627,7.23,11.424,7.375v6.796c-10.268-0.434-18.076-0.723-23.282-0.723
		c-5.351,0-13.304,0.29-24.005,0.723v-6.796c6.941-0.434,9.979-1.157,9.979-4.917c0-1.301,0-2.313-0.289-3.037l-7.375-21.402
		h-29.935l-6.362,17.931c-0.867,2.603-1.591,4.627-1.591,6.652c0,3.615,2.458,4.483,8.821,4.772v6.796
		c-6.363-0.434-11.135-0.723-14.316-0.723c-3.036,0-7.664,0.29-13.882,0.723v-6.796c7.375-0.145,8.82-2.169,10.99-8.098
		l33.693-90.235H1640.493z M1612.729,228.213h25.161l-12.291-36.296L1612.729,228.213z"/>
	<path d="M1710.342,168.201c10.701,0,20.679-0.578,30.078-0.578c24.729,0,37.31,9.11,37.31,25.74
		c0,16.34-10.412,24.438-31.959,25.885c18.944,1.446,26.753,7.23,29.066,21.691c1.735,10.701-0.723,19.956,6.652,19.956
		c4.049,0,5.64-2.893,6.796-8.821l5.206,0.723c-1.735,13.448-8.966,19.956-22.125,19.956c-13.882,0-18.943-7.52-18.943-22.848
		v-7.375c0-14.75-2.893-19.522-20.823-19.522h-5.93v29.066c0,10.701,1.302,12.581,12.147,12.581v6.796
		c-10.267-0.579-18.221-0.868-23.86-0.868c-5.351,0-13.593,0.289-24.583,0.868v-6.796c10.701,0,12.292-1.735,12.292-12.581V187
		c0-10.701-1.446-12.437-12.292-12.581v-6.796C1696.604,168.056,1703.546,168.201,1710.342,168.201z M1730.153,215.921
		c16.485,0,22.992-5.64,22.992-21.546c0-13.738-6.218-19.812-20.245-19.812c-1.735,0-4.193,0.29-7.23,0.434v40.779
		C1727.261,215.921,1728.707,215.921,1730.153,215.921z"/>
	<path d="M1849.168,166.321l33.404,90.958c2.169,5.784,4.627,7.23,11.424,7.375v6.796c-10.268-0.434-18.076-0.723-23.282-0.723
		c-5.351,0-13.304,0.29-24.005,0.723v-6.796c6.941-0.434,9.979-1.157,9.979-4.917c0-1.301,0-2.313-0.289-3.037l-7.375-21.402
		h-29.935l-6.362,17.931c-0.867,2.603-1.591,4.627-1.591,6.652c0,3.615,2.458,4.483,8.821,4.772v6.796
		c-6.363-0.434-11.135-0.723-14.316-0.723c-3.036,0-7.664,0.29-13.882,0.723v-6.796c7.375-0.145,8.82-2.169,10.99-8.098
		l33.693-90.235H1849.168z M1821.403,228.213h25.161l-12.291-36.296L1821.403,228.213z"/>
</g>
</svg>
