<?xml version="1.0" encoding="utf-8"?>
<!-- Generator: Adobe Illustrator 16.0.0, SVG Export Plug-In . SVG Version: 6.00 Build 0)  -->
<!DOCTYPE svg PUBLIC "-//W3C//DTD SVG 1.1//EN" "http://www.w3.org/Graphics/SVG/1.1/DTD/svg11.dtd">
<svg version="1.1" id="Capa_2" xmlns="http://www.w3.org/2000/svg" xmlns:xlink="http://www.w3.org/1999/xlink" x="0px" y="0px"
	 width="545px" height="530.263px" viewBox="0 0 545 530.263" enable-background="new 0 0 545 530.263" xml:space="preserve">
<polygon fill="#CCD3D7" points="393.215,0.149 242.793,86.4 242,86.4 242,387.4 0,387.4 283.852,530.263 393,470.425 393,86.561 
	393,86.561 "/>
<polygon fill="#929CA2" points="245,86.4 245,108.859 245,389.193 266,400.548 266,389.193 266,108.4 280,108.4 280,389.193 
	280,408.307 280,408.409 305,421.512 305,408.307 305,389.193 305,108.4 320,108.4 320,389.193 320,429.013 320,430.247 
	346,444.222 346,429.013 346,389.193 346,108.4 360,108.4 360,389.193 360,451.312 360,452.083 393,470.425 393,451.312 
	393,389.193 393,108.859 393,86.4 "/>
<polygon fill="#1C3680" points="541,86.4 541,108.859 541,389.193 521,400.548 521,389.193 521,108.4 506,108.4 506,389.193 
	506,408.307 506,408.409 483,421.512 483,408.307 483,389.193 483,108.4 467,108.4 467,389.193 467,429.013 467,430.247 
	442,444.222 442,429.013 442,389.193 442,108.4 427,108.4 427,389.193 427,451.312 427,452.083 393,470.425 393,451.312 
	393,389.193 393,108.859 393,86.4 "/>
<path fill="#1C3680" d="M393,86.561c0,0,0.215-87.458,0.215-86.411c0,1.025,151.523,85.037,151.523,85.037"/>
<line fill="#004E93" stroke="#004E93" stroke-width="2" stroke-miterlimit="10" x1="393" y1="86.4" x2="545" y2="86.4"/>
<rect x="427" y="108.4" fill="#004E93" width="15" height="336"/>
<rect x="467" y="108.4" fill="#004E93" width="16" height="313"/>
<rect x="506" y="108.4" fill="#004E93" width="15" height="292"/>
<g>
	<polygon fill="#004E93" points="545,86.4 541,86.4 541,389.193 545,386.917 	"/>
	<polygon fill="#004E93" points="541,389.193 541,389.4 541.048,389.4 	"/>
</g>
</svg>
