<?xml version="1.0"?>
<svg xmlns="http://www.w3.org/2000/svg" viewBox="0 0 64 64" width="512" height="512"><g id="outline"><path d="M36,22H53a1,1,0,0,0,1-1V20a3.748,3.748,0,0,0-4-4h-.311c-.909-2.017-2.778-3-5.689-3-2.73,0-4.878,1.153-5.712,3H38a4.081,4.081,0,0,0-2,.523V11a1,1,0,0,0-.412-.809l-11-8A1,1,0,0,0,24,2H14a1,1,0,0,0-.588.191l-11,8A1,1,0,0,0,2,11V45a1,1,0,0,0,1,1H34.383c-.069.06-.145.108-.21.173A4,4,0,0,0,37,53h3.01a4.187,4.187,0,0,0,.06.737,3.788,3.788,0,0,0,2.963,3.191,3.516,3.516,0,0,0,1.821-.119,4.81,4.81,0,0,0,.618,1.278A4.56,4.56,0,0,0,47,59.528V62h2V59.989a4,4,0,0,0,2.3-.869,3.981,3.981,0,0,0,2.5.88c.069,0,.135-.014.2-.017V62h2V59.321A4,4,0,0,0,57.67,57a3.742,3.742,0,0,0,2.068-.54,3.979,3.979,0,0,0-.944-7.332,3.8,3.8,0,0,0-.484-1.967,4.066,4.066,0,0,0-2.61-2.054,3.926,3.926,0,0,0-1.432-.068,3.976,3.976,0,0,0-6.572-.55,4.019,4.019,0,0,0-2.607-.425A3.957,3.957,0,0,0,43.162,45H37a3.982,3.982,0,0,0-1.03.151A.939.939,0,0,0,36,45V36h4v5h2V36h4v5h2V36h4v5h2V36h4v5h2V36h2V34H36Zm7.841,25.574a2.011,2.011,0,0,1,1.592-1.542,1.974,1.974,0,0,1,1.823.614,1,1,0,0,0,1.672-.333,1.984,1.984,0,0,1,3.786.167,1,1,0,0,0,.519.634.985.985,0,0,0,.819.033,1.959,1.959,0,0,1,1.191-.094,2.094,2.094,0,0,1,1.309,1.059,1.774,1.774,0,0,1,.114,1.566,1,1,0,0,0,1.015,1.339L57.823,51a2,2,0,0,1,1.949,2.306,2.049,2.049,0,0,1-1.03,1.418,1.8,1.8,0,0,1-1.624.146,1,1,0,0,0-1.34,1c0,.026.014.1.018.128a2,2,0,0,1-3.666,1.1,1,1,0,0,0-1.667,0,2.006,2.006,0,0,1-1.6.9,2.128,2.128,0,0,1-1.729-1.026,2,2,0,0,1-.387-1.661,1,1,0,0,0-1.672-1,1.706,1.706,0,0,1-1.672.655,1.888,1.888,0,0,1-1.365-1.591,1.985,1.985,0,0,1,.375-1.6A2.01,2.01,0,0,1,43.864,51a1,1,0,0,0,.669-1.674A2.127,2.127,0,0,1,43.841,47.574ZM38,47v2h2V47h1.93c-.014.057-.036.11-.048.168a3.479,3.479,0,0,0,.308,2.257,4,4,0,0,0-1.359,1.121A3.884,3.884,0,0,0,40.55,51H37a2,2,0,0,1,0-4Zm0-29h1a1,1,0,0,0,.974-.772C40.357,15.583,42.383,15,44,15c2.927,0,3.674,1.1,4.045,2.3A1,1,0,0,0,49,18h1a1.793,1.793,0,0,1,2,2H36A1.913,1.913,0,0,1,38,18ZM6.075,10H12V8H8.825l5.5-4h9.35l5.5,4H27v2h4.925L34,11.509V12H32v2h2v2H28v2h6v2H4V18h6V16H4V14H8V12H4v-.491ZM28.151,38,30,34.765v6.47ZM28,34.235V32h1.277ZM9.849,38,8,41.235v-6.47ZM10,41.765V44H8.723ZM12,27l4,3H12Zm10,3,4-3v3Zm-3-.25L14,26H24Zm-9,4.485L8.723,32H10ZM12,32H26V44H12Zm16,9.765L29.277,44H28ZM32,44V31a1,1,0,0,0-1-1H28V25a1,1,0,0,0-1-1H11a1,1,0,0,0-1,1v5H7a1,1,0,0,0-1,1V44H4V26H8V24H4V22H34v2H29v2h5V44Z"/><path d="M14,16H12v2H26V16H24V14h6V12H24V6H14v6H10v2h4Zm2-8h6v8H16Z"/><path d="M5,54H3a1,1,0,0,0-1,1,5.006,5.006,0,0,0,5,5H8v2h2V60h1a5.006,5.006,0,0,0,5-5,1,1,0,0,0-1-1H13a4.948,4.948,0,0,0-3,1.026V54h1a5.006,5.006,0,0,0,5-5,1,1,0,0,0-1-1H13a4.982,4.982,0,0,0-4,2.031A4.982,4.982,0,0,0,5,48H3a1,1,0,0,0-1,1,5.006,5.006,0,0,0,5,5H8v1.026A4.948,4.948,0,0,0,5,54Zm2,4a3.006,3.006,0,0,1-2.829-2H5a3.006,3.006,0,0,1,2.829,2Zm6-2h.829A3.006,3.006,0,0,1,11,58h-.829A3.006,3.006,0,0,1,13,56Zm0-6h.829A3.006,3.006,0,0,1,11,52h-.829A3.006,3.006,0,0,1,13,50ZM7,52a3.006,3.006,0,0,1-2.829-2H5a3.006,3.006,0,0,1,2.829,2Z"/><path d="M26,62V58h1a5.006,5.006,0,0,0,5-5,1,1,0,0,0-1-1H29a4.982,4.982,0,0,0-4,2.031A4.982,4.982,0,0,0,21,52H19a1,1,0,0,0-1,1,5.006,5.006,0,0,0,5,5h1v4Zm3-8h.829A3.006,3.006,0,0,1,27,56h-.829A3.006,3.006,0,0,1,29,54Zm-6,2a3.006,3.006,0,0,1-2.829-2H21a3.006,3.006,0,0,1,2.829,2Z"/><rect x="33" y="60" width="2" height="2"/><rect x="37" y="57" width="2" height="2"/><path d="M58,5h-.311C56.78,2.983,54.911,2,52,2c-2.73,0-4.878,1.153-5.712,3H46a3.913,3.913,0,0,0-4,4v1a1,1,0,0,0,1,1H61a1,1,0,0,0,1-1V9A3.748,3.748,0,0,0,58,5ZM44,9a1.913,1.913,0,0,1,2-2h1a1,1,0,0,0,.974-.772C48.357,4.583,50.383,4,52,4c2.927,0,3.674,1.1,4.045,2.3A1,1,0,0,0,57,7h1a1.793,1.793,0,0,1,2,2Z"/></g></svg>
